<?xml version="1.0" encoding="utf-8"?>
<!-- Generator: Adobe Illustrator 27.6.1, SVG Export Plug-In . SVG Version: 6.00 Build 0)  -->
<svg version="1.1" xmlns="http://www.w3.org/2000/svg" xmlns:xlink="http://www.w3.org/1999/xlink" x="0px" y="0px"
	 viewBox="0 0 1000 313.5" style="enable-background:new 0 0 1000 313.5;" xml:space="preserve">
<style type="text/css">
	.st0{display:none;}
	.st1{fill:#F2D1BB;stroke:#000000;stroke-miterlimit:10;}
	.st2{fill:#B0A4ED;stroke:#000000;stroke-miterlimit:10;}
	.st3{fill:none;stroke:#000000;stroke-miterlimit:10;}
	.st4{fill:#CCCCCC;stroke:#000000;stroke-miterlimit:10;}
	.st5{fill:#FFFFFF;stroke:#000000;stroke-miterlimit:10;}
	.st6{fill:#A4EAAD;stroke:#000000;stroke-miterlimit:10;}
	.st7{fill:#E8E6A6;stroke:#000000;stroke-miterlimit:10;}
	.st8{fill:#A5D9E5;stroke:#000000;stroke-miterlimit:10;}
	.st9{fill:#E2AFA6;stroke:#000000;stroke-miterlimit:10;}
</style>
<g id="Livello_1" class="st0">
	
		<image style="display:inline;overflow:visible;" width="1000" height="1000" xlink:href="E:\logo bimbibelli.png"  transform="matrix(0.7956 0 0 0.7956 102 -217.5)">
	</image>
</g>
<g id="Livello_2">
	<ellipse class="st1" cx="122" cy="83.1" rx="36.1" ry="32.9"/>
	<ellipse class="st1" cx="315.1" cy="35.9" rx="30.6" ry="27.9"/>
	<ellipse class="st1" cx="481.6" cy="144.6" rx="34.1" ry="29.3"/>
	<ellipse class="st1" cx="668.9" cy="101.7" rx="29.8" ry="25.6"/>
	<ellipse class="st1" cx="870.6" cy="117.5" rx="32.4" ry="27.9"/>
	<path class="st2" d="M98,108.2c0,0,1.4,38.6-30,77.2s-4.4,56.2,13.5,55.3c17.9-0.9,92.3-3.8,103.7-25.3s-10-53-27.2-68.7
		s-8.6-24.3-14.1-37.6C119.5,125.3,98,108.2,98,108.2z"/>
	<path class="st3" d="M105.2,239.2c0,0-5.8,34.8-31.6,49.1"/>
	<path class="st3" d="M139.5,235.1c0,0-1.3,18.4-7.1,28.7"/>
	<path class="st4" d="M53.6,297.3c0,0,2.5,11.1,12.3,13.5s17.2,1.2,19.7-3.7s4.9-18.4-11.7-18.4C68.3,285,53.6,285,53.6,297.3z"/>
	<path class="st4" d="M111.8,272.9c0,0,2.5,11.3,12.6,13.8c10.1,2.5,17.6,1.3,20.1-3.8s5-18.9-12-18.9
		C126.9,260.3,111.8,260.3,111.8,272.9z"/>
	<path class="st4" d="M670.8,290.2c0,0,7.7,5.6,15.3,1.7s11.5-8.8,10.4-13.2c-1.2-4.5-7.1-14.4-17.6-5.2
		C673.3,274.3,664,282.5,670.8,290.2z"/>
	<path class="st4" d="M721.5,253.3c0,0,1.7,8.2-4.7,13.4c-6.5,5.2-12.3,7-15.7,4.6s-9.6-10.4,2.7-16.4
		C706.7,250.5,717.6,245.2,721.5,253.3z"/>
	<path class="st3" d="M93.5,136c-26-18.5-36.6-14.5-55.4-31.2"/>
	<path class="st3" d="M153,141.2c16.5-30.2,29.4-27.3,45.1-54.5"/>
	<ellipse transform="matrix(0.6161 -0.7877 0.7877 0.6161 -65.2246 62.485)" class="st4" cx="31.5" cy="98.2" rx="12.9" ry="9.3"/>
	<ellipse transform="matrix(0.367 -0.9302 0.9302 0.367 113.2219 211.0759)" class="st4" cx="211.7" cy="22.3" rx="12.9" ry="9.3"/>
	
		<ellipse transform="matrix(0.8996 -0.4368 0.4368 0.8996 36.4655 188.9647)" class="st4" cx="429.1" cy="15.2" rx="9.3" ry="12.9"/>
	<ellipse transform="matrix(0.8996 -0.4368 0.4368 0.8996 -19.3361 269.55)" class="st4" cx="576.4" cy="176.8" rx="6.8" ry="9.4"/>
	
		<ellipse transform="matrix(0.5451 -0.8384 0.8384 0.5451 177.1561 554.2654)" class="st4" cx="599.3" cy="113.9" rx="6.8" ry="9.4"/>
	<ellipse transform="matrix(0.2391 -0.971 0.971 0.2391 465.9424 825.2354)" class="st4" cx="759.5" cy="115.3" rx="6.8" ry="9.4"/>
	<ellipse transform="matrix(0.866 -0.5 0.5 0.866 31.0351 397.9469)" class="st4" cx="758.1" cy="141.1" rx="9.4" ry="6.8"/>
	<ellipse transform="matrix(0.866 -0.5 0.5 0.866 65.1689 505.3111)" class="st4" cx="975.5" cy="131" rx="6.8" ry="9.4"/>
	
		<ellipse transform="matrix(0.4008 -0.9161 0.9161 0.4008 59.3779 464.4559)" class="st4" cx="384.8" cy="186.8" rx="6.8" ry="9.4"/>
	<ellipse transform="matrix(0.866 -0.5 0.5 0.866 -13.6117 114.0353)" class="st4" cx="206" cy="82.4" rx="9.3" ry="12.9"/>
	<ellipse cx="107.3" cy="71.7" rx="2.1" ry="3.6"/>
	<ellipse cx="132.3" cy="68.1" rx="2.1" ry="3.6"/>
	<ellipse cx="305.4" cy="25.2" rx="2.1" ry="3.6"/>
	<ellipse cx="325.4" cy="25.2" rx="2.1" ry="3.6"/>
	<ellipse cx="657.3" cy="93.9" rx="2.1" ry="3.6"/>
	<ellipse cx="680.1" cy="93.9" rx="2.1" ry="3.6"/>
	<ellipse cx="858.9" cy="109.6" rx="2.1" ry="3.6"/>
	<ellipse cx="884.7" cy="109.6" rx="2.1" ry="3.6"/>
	<ellipse cx="469.2" cy="136.8" rx="3.6" ry="2.9"/>
	<ellipse cx="492.8" cy="136.1" rx="3.6" ry="2.9"/>
	<path class="st5" d="M145.3,84.6c0,27.2-48,35.8-48,0H145.3z"/>
	<path class="st5" d="M682.3,108.2c0,15-26.4,19.7-26.4,0H682.3z"/>
	<path class="st5" d="M886.8,123.2c0,18.2-32.1,23.9-32.1,0H886.8z"/>
	<path class="st5" d="M296.1,38.1c0,19,37.2,25,37.2,0H296.1z"/>
	<path class="st5" d="M462,149.6c0,19,33.6,21.5,37.2,0H462z"/>
	<path class="st6" d="M305.4,63.8c0,0-44.3-5.7-47.2,11.4c-2.8,17,12.9,32.9,15.7,51.5c3.1,19.8,3.9,45.3,24.9,47.7
		c20.9,2.4,36.6-9.1,42.4-23.4s23-57.7,30-65.8c6.2-7.2,5.7-23.1-20-25.7c-5.3-0.6-12,0.1-17.2,1.4
		C316.8,65.3,310.9,64.5,305.4,63.8z"/>
	<line class="st3" x1="297.5" y1="240" x2="296.1" y2="174.4"/>
	<line class="st3" x1="322" y1="170.9" x2="340.5" y2="225"/>
	<path class="st4" d="M290.8,259c15.5,1.7,27.4-14.2,2-20.1s-27.6,5.7-24.5,10.2C271.4,253.5,281.8,258,290.8,259z"/>
	<path class="st4" d="M344.1,244.7c-15.5,1.7-27.4-14.2-2-20.1c25.3-6,27.6,5.7,24.5,10.2C363.5,239.2,353.1,243.7,344.1,244.7z"/>
	<path class="st4" d="M779,249.9c-7.2,10.4-25,7.1-15.7-12s19-12.7,20.6-8S783.2,243.9,779,249.9z"/>
	<path class="st4" d="M953.2,245.4c5.4,10,21.6,8.9,15.2-9.1c-6.4-18-15.7-13.3-17.6-9.2S950.1,239.6,953.2,245.4z"/>
	<path class="st3" d="M258.5,75c0,0-35.9-31.2-41-43.4"/>
	<path class="st3" d="M371.2,68.1c0,0,36-38.6,50.2-46.5"/>
	<path class="st7" d="M462.4,168.9c0,0-38.2,46.9-49,70.3c-10.8,23.4,2.1,37.7,30.7,40.6c28.6,2.9,67.2,5.7,84.4-7.2
		c17.2-12.9-1.4-47.2-4.3-52.9c-2.9-5.7-19.9-43-23.5-50.8C500.7,168.9,482.3,180.8,462.4,168.9z"/>
	<path class="st3" d="M449.3,185.6c0,0-32.1-2.6-55.8,0"/>
	<path class="st3" d="M507.2,182.9c0,0,45.7,1.1,62.8-3.2"/>
	<path class="st3" d="M415.7,269c0,0-5.4,8.3-73.1,15"/>
	<path class="st3" d="M535,262.5c0,0,47.7-9.9,67.1-9.2"/>
	<path class="st4" d="M342.6,284.1c0,0-4.3-14.3-15.7-14.3s-14.3,15.7-11.4,21.5c2.9,5.7,8.6,15.7,21.5,10
		C348.1,296.3,342.6,284.1,342.6,284.1z"/>
	<path class="st4" d="M602.9,251.4c0,0,3.3-10.9,12-10.9s10.9,12,8.7,16.4c-2.2,4.4-6.5,12-16.4,7.6
		C598.7,260.7,602.9,251.4,602.9,251.4z"/>
	<path class="st8" d="M688.5,121c-4.1,11.7,17,47,24,59c4,8,21.7,33,14,41c-13.8,14.3-72.1,4.5-92.1,1.6s-11.4-24.3,4.8-42.9
		c16.2-18.6,12.7-57,12.7-57S669.5,134,688.5,121z"/>
	<path class="st3" d="M660.5,226c0,0-4.7,32,17.5,47.9"/>
	<path class="st3" d="M697.5,229c0,0,0.3,20.3,6,26"/>
	<path class="st3" d="M650,154.9c0,0-25.6-2.1-45.6-33.7"/>
	<path class="st3" d="M699.5,156c0,0,43.4-20.3,55.6-34.8"/>
	<path class="st9" d="M890.4,139.6c0,0,4.3,0,15-0.6c33.6,2.3-3.5,52.1-7.8,63.5s-1.4,41.5-30,41.5s-25.7-17.2-31.7-35
		c-6-17.9-24.1-37.9-21-54.1c3.1-16.2,42-12.2,42-12.2S874.3,150.3,890.4,139.6z"/>
	<path class="st3" d="M814.5,159.6c0,0-34.1-6-50-14.6"/>
	<path class="st3" d="M917.1,163.4c0,0,36.2-8.8,53.4-27.4"/>
	<path class="st3" d="M853.6,242c0,0-43.3,4.9-71.2,2"/>
	<path class="st3" d="M882.5,240c0,0,53.4,4.4,70,3.5"/>
	<path class="st3" d="M119,50.4c0,0,0.5-11.4-15.5-18.4"/>
	<path class="st3" d="M121,50.4c0,0,1.5-20.4-7.5-31.4"/>
	<path class="st3" d="M122.4,50.2c0,0,2.1-15.2,5.1-16.2"/>
	<path class="st3" d="M314.3,8c0,0-6.8-4-17.8-2"/>
	<path class="st3" d="M315.4,8c0,0,6.1-7,17.1-6"/>
	<path class="st3" d="M314.7,8c0,0-2.4-4.6-9.3-5.8"/>
	<path class="st3" d="M318.8,8.3c0,0,5.7-4.8,16.2-1.5"/>
	<path class="st3" d="M307.5,9c0,0-5-2-11.4,0.1"/>
	<path class="st3" d="M315.1,8c0,0,0.4-6,4.4-7"/>
	<path class="st3" d="M640.5,85c10-10,25.1-8.9,25.1-8.9S655.5,75,646.5,77"/>
	<path class="st3" d="M653.1,80c0,0-8.6,1-16.6,13"/>
	<path class="st3" d="M667.7,76.1c0,0,21.8-3.1,29.8,4.4"/>
	<path class="st3" d="M678,77.3c0,0,12.5,0.7,20.5,8.7"/>
	<path class="st3" d="M685.7,80.5c0,0,12.1,6.2,16.4,13.3"/>
	<path class="st3" d="M852.1,94.6c0,0,7.6-7.3,9-10.4"/>
	<path class="st3" d="M861.1,90.8c0,0,4.4-6.8,4.4-9.8"/>
	<path class="st3" d="M868.1,89.3c0,0-0.6-7.3,0.4-10.3"/>
	<path class="st3" d="M875.5,90c0,0-4-5-4-9"/>
	<path class="st3" d="M885.2,92.5c0,0-7.7-5.5-9.7-9.5"/>
</g>
</svg>
