<?xml version="1.0" encoding="utf-8"?>
<!-- Generator: Adobe Illustrator 27.6.1, SVG Export Plug-In . SVG Version: 6.00 Build 0)  -->
<svg version="1.1" id="Livello_1" xmlns="http://www.w3.org/2000/svg" xmlns:xlink="http://www.w3.org/1999/xlink" x="0px" y="0px"
	 viewBox="0 0 1000 1000" style="enable-background:new 0 0 1000 1000;" xml:space="preserve">
<style type="text/css">
	.st0{fill:#5B5B5B;}
	.st1{fill:#FFFFFF;}
</style>
<g>
	<path class="st0" d="M493,576.9v95.6c0,6.5,5,12.1,11.5,12.4c6.9,0.3,12.6-5.2,12.6-12c0-2.2,0-94.1,0-96.4c0-6.8-5.7-12.3-12.6-12
		C498,564.7,493,570.4,493,576.9z M553.6,576.9v95.6c0,6.5,5,12.1,11.5,12.4c6.9,0.3,12.6-5.2,12.6-12c0-2.2,0-94.1,0-96.4
		c0-6.8-5.7-12.3-12.6-12C558.6,564.7,553.6,570.4,553.6,576.9z M615,576.9v95.6c0,6.5,5,12.1,11.5,12.4c6.9,0.3,12.6-5.2,12.6-12
		c0-2.2,0-94.1,0-96.4c0-6.8-5.7-12.3-12.6-12C620,564.7,615,570.4,615,576.9z M766.1,383.1c32.9,11,42.4,31.9,42.4,69.2
		c0,3.6-0.1,57.7-0.1,69.3c0,150-79.1,152.9-79.1,231.3c0,20.8,1.5,41.6-3,48.6c-4.6,7.1-8.3,17-29.6,17c-1.6,0-56.2,0-58,0
		c-39.1,0-60.4-29.6-60.4-29.6s-26.8,29.6-53.1,29.6c-12.2,0-75.1,0-94.9,0c-4.8,0-23.5-5.4-30.6-17c-11.8-19.2-2-36.8-11.8-58.1
		c-11.1-24-67.3-51-98.5-136.2c-33.2-90.4-80.2-84.6-80.2-130.6c0-45.7,33.6-64.7,56.3-64.7c59.1,0,92,42,92,42
		S315.5,331.5,308,305.6c-15.6-53.4-0.2-101.3,48.3-111.8c55.7-12.1,80.3,33.8,88.9,57c10,26.9,39.4,103.8,39.4,103.8
		s32.2-14.7,59.2-9c29.4,6.2,41.1,22.5,41.1,22.5s26-22.9,68.8-14.9c40.3,7.5,55.2,38.4,55.2,38.4S739.8,374.4,766.1,383.1z"/>
</g>
<g>
	<path class="st1" d="M447,539.9v95.6c0,6.5,5,12.1,11.5,12.4c6.9,0.3,12.6-5.2,12.6-12c0-2.2,0-94.1,0-96.4c0-6.8-5.7-12.3-12.6-12
		C452,527.7,447,533.4,447,539.9z M507.6,539.9v95.6c0,6.5,5,12.1,11.5,12.4c6.9,0.3,12.6-5.2,12.6-12c0-2.2,0-94.1,0-96.4
		c0-6.8-5.7-12.3-12.6-12C512.6,527.7,507.6,533.4,507.6,539.9z M569,539.9v95.6c0,6.5,5,12.1,11.5,12.4c6.9,0.3,12.6-5.2,12.6-12
		c0-2.2,0-94.1,0-96.4c0-6.8-5.7-12.3-12.6-12C574,527.7,569,533.4,569,539.9z M720.1,346.1c32.9,11,42.4,31.9,42.4,69.2
		c0,3.6-0.1,57.7-0.1,69.3c0,150-79.1,152.9-79.1,231.3c0,20.8,1.5,41.6-3,48.6c-4.6,7.1-8.3,17-29.6,17c-1.6,0-56.2,0-58,0
		c-39.1,0-60.4-29.6-60.4-29.6s-26.8,29.6-53.1,29.6c-12.2,0-75.1,0-94.9,0c-4.8,0-23.5-5.4-30.6-17c-11.8-19.2-2-36.8-11.8-58.1
		c-11.1-24-67.3-51-98.5-136.2c-33.2-90.4-80.2-84.6-80.2-130.6c0-45.7,33.6-64.7,56.3-64.7c59.1,0,92,42,92,42
		S269.5,294.5,262,268.6c-15.6-53.4-0.2-101.3,48.3-111.8c55.7-12.1,80.3,33.8,88.9,57c10,26.9,39.4,103.8,39.4,103.8
		s32.2-14.7,59.2-9c29.4,6.2,41.1,22.5,41.1,22.5s26-22.9,68.8-14.9c40.3,7.5,55.2,38.4,55.2,38.4S693.8,337.4,720.1,346.1z"/>
</g>
</svg>
